<?xml version="1.0" encoding="UTF-8"?>
<svg xmlns="http://www.w3.org/2000/svg" width="1200" height="300" style="background:#1a1a2e;font-family:monospace">
<rect x="80" y="30" width="1100" height="60" fill="#16213e" opacity="0.6"/>
<rect x="80" y="100" width="1100" height="60" fill="#0f3460" opacity="0.6"/>
<rect x="80" y="170" width="1100" height="60" fill="#16213e" opacity="0.6"/>
<text x="5" y="60" fill="#aaaaaa" font-size="11" dominant-baseline="middle">SYSCALL</text>
<text x="5" y="130" fill="#aaaaaa" font-size="11" dominant-baseline="middle">SIGNAL</text>
<text x="5" y="200" fill="#aaaaaa" font-size="11" dominant-baseline="middle">PROC</text>
<text x="600" y="20" fill="#e0e0e0" font-size="14" text-anchor="middle">EchoRun Trace Timeline (5 events)</text>
<line x1="80" y1="185" x2="80" y2="215" stroke="#4CAF50" stroke-width="2" opacity="0.85"><title>stat() seq=0 ret=0</title></line>
<line x1="373" y1="45" x2="373" y2="75" stroke="#4A90D9" stroke-width="2" opacity="0.85"><title>read() seq=4 ret=832</title></line>
<line x1="1033" y1="45" x2="1033" y2="75" stroke="#4A90D9" stroke-width="2" opacity="0.85"><title>read() seq=13 ret=6</title></line>
<line x1="1106" y1="185" x2="1106" y2="215" stroke="#4CAF50" stroke-width="2" opacity="0.85"><title>syscall() seq=14 ret=0</title></line>
<line x1="1180" y1="185" x2="1180" y2="215" stroke="#4CAF50" stroke-width="2" opacity="0.85"><title>read() seq=15 ret=0</title></line>
<line x1="1033" y1="30" x2="1033" y2="290" stroke="#FF4444" stroke-width="3" stroke-dasharray="6,3"><title>DIVERGENCE seq=13 expected=0 actual=0</title></line>
<text x="1033" y="28" fill="#FF4444" font-size="11" text-anchor="middle">DIV</text>
<line x1="80" y1="270" x2="1180" y2="270" stroke="#444" stroke-width="1"/>
<text x="80" y="285" fill="#666" font-size="10" text-anchor="middle">0</text>
<text x="300" y="285" fill="#666" font-size="10" text-anchor="middle">3</text>
<text x="593" y="285" fill="#666" font-size="10" text-anchor="middle">7</text>
<text x="886" y="285" fill="#666" font-size="10" text-anchor="middle">11</text>
<text x="1180" y="285" fill="#666" font-size="10" text-anchor="middle">15</text>
<rect x="1000" y="50" width="12" height="12" fill="#4A90D9"/>
<text x="1016" y="61" fill="#ccc" font-size="11">SYSCALL</text>
<rect x="1000" y="68" width="12" height="12" fill="#E8A838"/>
<text x="1016" y="79" fill="#ccc" font-size="11">SIGNAL</text>
<rect x="1000" y="86" width="12" height="12" fill="#4CAF50"/>
<text x="1016" y="97" fill="#ccc" font-size="11">PROC</text>
<rect x="1000" y="104" width="12" height="12" fill="#FF4444"/>
<text x="1016" y="115" fill="#ccc" font-size="11">DIVERGENCE</text>
</svg>
